<svg data-v-423bf9ae="" xmlns="http://www.w3.org/2000/svg" viewBox="0 0 416 90" class="iconLeftSlogan"><!----><!----><!----><g data-v-423bf9ae="" id="36935f20-0f9a-4b66-b016-3984427d68a4" fill="#000000" transform="matrix(5.6980053264473165,0,0,5.6980053264473165,141.53132080839282,-14.415953074471894)"><path d="M0.76 7.22L0.76 7.22L0.69 4.58Q0.69 3.95 0.55 3.58Q0.41 3.22 0.41 3.19L0.41 3.19Q0.41 2.88 1.35 2.72Q2.30 2.55 2.79 2.55Q3.29 2.55 3.33 2.79L3.33 2.79Q4.21 6.72 4.82 8.25L4.82 8.25Q4.89 8.41 4.96 8.41Q5.04 8.41 5.10 8.29L5.10 8.29Q6.03 5.64 6.75 3.05L6.75 3.05Q6.80 2.88 7.03 2.79Q7.25 2.70 7.81 2.62Q8.36 2.53 8.90 2.53Q9.45 2.53 9.45 2.76L9.45 2.76Q9.45 2.77 9.41 2.97Q9.37 3.18 9.32 3.47Q9.28 3.77 9.23 4.19L9.23 4.19Q9.10 5.15 9.06 6.40Q9.03 7.66 9.03 8.92L9.03 8.92L9.06 10.39Q9.06 11.40 9.19 11.82Q9.32 12.25 9.32 12.31Q9.32 12.38 9.23 12.46L9.23 12.46Q8.79 12.81 7.91 12.81L7.91 12.81Q7.35 12.81 7.28 12.43L7.28 12.43Q7.24 12.24 7.24 11.81Q7.24 11.38 7.32 9.18Q7.41 6.99 7.41 5.98Q7.41 4.98 7.29 4.98L7.29 4.98Q7.28 4.98 7.28 4.99Q7.28 5.00 7.24 5.01Q7.20 5.03 7.02 5.45Q6.85 5.87 6.33 7.52Q5.81 9.17 5.39 10.61Q4.97 12.04 4.93 12.15L4.93 12.15Q4.77 12.53 4.34 12.53L4.34 12.53Q4.13 12.53 4.00 12.38L4.00 12.38Q3.56 10.30 2.41 6.45L2.41 6.45L2.02 5.18Q1.99 5.11 1.96 5.11L1.96 5.11Q1.89 5.11 1.86 5.21L1.86 5.21Q1.81 6.12 1.81 8.79Q1.81 11.45 2.00 12.15L2.00 12.15Q2.02 12.18 2.02 12.24L2.02 12.24Q2.02 12.53 1.55 12.66Q1.09 12.80 0.72 12.80Q0.35 12.80 0.35 12.63L0.35 12.63Q0.35 12.61 0.42 12.40L0.42 12.40Q0.63 11.69 0.69 10.33Q0.76 8.97 0.76 7.22ZM13.31 6.62Q13.90 6.33 14.49 6.33Q15.08 6.33 15.08 7.55L15.08 7.55Q15.08 8.44 14.75 9.37Q14.42 10.29 13.93 10.99L13.93 10.99Q12.92 12.46 12.11 12.95L12.11 12.95Q11.91 13.06 11.82 13.06Q11.72 13.06 11.61 12.85Q11.51 12.64 11.29 11.93Q11.07 11.21 10.93 10.65L10.93 10.65L10.81 10.08Q10.53 8.85 10.26 8.11Q10.00 7.38 9.87 7.27L9.87 7.27L9.73 7.14Q9.59 7.07 9.59 6.97L9.59 6.97L9.66 6.85Q9.84 6.68 10.27 6.50Q10.70 6.33 11.21 6.33L11.21 6.33Q11.45 6.33 11.51 6.59L11.51 6.59Q11.72 7.24 11.87 8.11Q12.03 8.97 12.29 10.07Q12.54 11.16 12.71 11.17L12.71 11.17Q12.80 11.17 12.90 11.05Q13.01 10.92 13.15 10.71Q13.30 10.50 13.52 9.90Q13.73 9.30 13.73 8.87Q13.73 8.44 13.70 8.21Q13.66 7.98 13.45 7.67Q13.24 7.36 12.98 7.31Q12.71 7.27 12.71 7.14L12.71 7.14Q12.71 6.92 13.31 6.62ZM16.90 9.11L16.90 9.11L16.91 9.46Q16.91 9.55 17.02 9.55L17.02 9.55Q17.47 9.51 17.81 9.32Q18.14 9.13 18.31 8.89L18.31 8.89Q18.65 8.37 18.68 7.99L18.68 7.99L18.69 7.83Q18.69 7.07 18.09 7.07L18.09 7.07Q17.64 7.07 17.36 7.46L17.36 7.46Q16.90 8.08 16.90 9.11ZM19.95 10.98L19.95 10.98Q19.95 11.51 19.73 11.91Q19.52 12.31 19.24 12.49Q18.97 12.68 18.61 12.80L18.61 12.80Q18.14 12.94 17.72 12.94L17.72 12.94Q16.55 12.94 15.99 12.05Q15.43 11.17 15.43 9.81Q15.43 8.44 16.12 7.38Q16.81 6.31 18.20 6.31L18.20 6.31Q19.46 6.31 19.91 7.20L19.91 7.20Q20.09 7.53 20.09 7.83Q20.09 8.13 20.06 8.31Q20.03 8.48 19.87 8.83Q19.70 9.18 19.42 9.46Q19.14 9.74 18.54 10.00Q17.93 10.25 17.12 10.33L17.12 10.33Q17.01 10.33 17.01 10.43L17.01 10.43Q17.01 10.56 17.10 10.80Q17.19 11.05 17.30 11.21L17.30 11.21Q17.61 11.61 18.21 11.61L18.21 11.61Q18.82 11.61 19.24 11.21L19.24 11.21Q19.46 11.00 19.60 10.70L19.60 10.70Q19.66 10.58 19.75 10.58Q19.84 10.58 19.89 10.74Q19.95 10.89 19.95 10.98ZM22.05 9.11L22.05 9.11L22.06 9.46Q22.06 9.55 22.18 9.55L22.18 9.55Q22.62 9.51 22.96 9.32Q23.30 9.13 23.46 8.89L23.46 8.89Q23.80 8.37 23.83 7.99L23.83 7.99L23.84 7.83Q23.84 7.07 23.24 7.07L23.24 7.07Q22.79 7.07 22.51 7.46L22.51 7.46Q22.05 8.08 22.05 9.11ZM25.10 10.98L25.10 10.98Q25.10 11.51 24.89 11.91Q24.67 12.31 24.39 12.49Q24.12 12.68 23.76 12.80L23.76 12.80Q23.30 12.94 22.88 12.94L22.88 12.94Q21.70 12.94 21.14 12.05Q20.58 11.17 20.58 9.81Q20.58 8.44 21.27 7.38Q21.97 6.31 23.35 6.31L23.35 6.31Q24.61 6.31 25.06 7.20L25.06 7.20Q25.24 7.53 25.24 7.83Q25.24 8.13 25.21 8.31Q25.19 8.48 25.02 8.83Q24.85 9.18 24.57 9.46Q24.29 9.74 23.69 10.00Q23.09 10.25 22.27 10.33L22.27 10.33Q22.16 10.33 22.16 10.43L22.16 10.43Q22.16 10.56 22.25 10.80Q22.34 11.05 22.46 11.21L22.46 11.21Q22.76 11.61 23.37 11.61L23.37 11.61Q23.97 11.61 24.39 11.21L24.39 11.21Q24.61 11.00 24.75 10.70L24.75 10.70Q24.81 10.58 24.90 10.58Q24.99 10.58 25.05 10.74Q25.10 10.89 25.10 10.98ZM30.07 7.85L30.00 8.92L30.06 9.41Q30.06 9.67 29.55 9.67L29.55 9.67Q28.53 9.67 28.53 8.90L28.53 8.90Q28.53 8.72 28.63 8.40Q28.73 8.08 28.73 7.84Q28.73 7.60 28.59 7.43Q28.45 7.25 28.18 7.25Q27.92 7.25 27.73 7.44Q27.54 7.63 27.50 7.83L27.50 7.83L27.44 8.02Q27.36 8.46 27.36 9.47Q27.36 10.49 27.38 11.07Q27.41 11.65 27.44 11.87Q27.47 12.08 27.47 12.12L27.47 12.12Q27.47 12.47 27.03 12.69Q26.60 12.91 26.17 12.91Q25.73 12.91 25.73 12.73L25.73 12.73L25.80 12.29Q26.00 11.07 26.00 9.11Q26.00 7.15 25.86 6.45L25.86 6.45Q25.86 6.29 26.15 6.29L26.15 6.29Q26.91 6.29 27.16 6.80L27.16 6.80Q27.17 6.86 27.21 6.86Q27.24 6.86 27.40 6.73L27.40 6.73Q27.86 6.36 28.49 6.36L28.49 6.36Q28.88 6.36 29.27 6.51L29.27 6.51Q30.07 6.83 30.07 7.85L30.07 7.85ZM32.17 2.80L32.17 2.80L34.30 2.87Q35.03 2.87 35.49 2.81L35.49 2.81L35.64 2.79Q35.88 2.79 35.88 3.32Q35.88 3.85 35.70 4.26L35.70 4.26Q33.21 8.25 33.21 11.63L33.21 11.63Q33.21 12.29 33.31 12.47Q33.42 12.66 33.42 12.67L33.42 12.67Q33.42 12.92 32.65 12.92L32.65 12.92Q31.28 12.92 31.28 12.40L31.28 12.40Q31.28 10.47 32.81 7.56Q34.34 4.65 34.34 4.42L34.34 4.42Q34.34 4.31 34.23 4.28L34.23 4.28Q33.75 4.26 33.38 4.26Q33.01 4.26 32.55 4.35Q32.09 4.44 31.82 4.58L31.82 4.58Q31.29 4.84 31.15 5.05L31.15 5.05L31.08 5.15Q30.98 5.32 30.87 5.32L30.87 5.32Q30.70 5.32 30.70 5.07L30.70 5.07Q30.70 2.97 31.18 2.87L31.18 2.87Q31.46 2.80 32.17 2.80ZM36.83 8.65L36.83 8.65L38.00 8.68Q38.61 8.68 38.96 8.67L38.96 8.67Q39.00 7.52 39.00 6.65L39.00 6.65L38.99 5.28Q38.99 5.10 38.89 5.10L38.89 5.10L38.72 5.18Q38.29 5.66 37.81 6.43Q37.32 7.20 37.06 7.74L37.06 7.74L36.79 8.27Q36.74 8.40 36.74 8.53Q36.74 8.65 36.83 8.65ZM38.89 10.11L38.89 10.11L37.69 10.09L35.17 10.12Q34.86 10.12 34.86 9.84L34.86 9.84L34.89 9.69Q35.78 7.48 37.90 4.66L37.90 4.66Q38.57 3.75 39.14 3.12L39.14 3.12L39.33 2.94Q39.69 2.56 40.40 2.56L40.40 2.56Q40.78 2.56 40.78 2.79L40.78 2.79Q40.56 4.76 40.56 6.80L40.56 6.80L40.56 8.58Q40.74 8.57 40.95 8.55L40.95 8.55L41.27 8.53Q41.37 8.53 41.40 8.53L41.40 8.53Q41.51 8.53 41.51 8.60L41.51 8.60Q41.51 8.83 41.27 9.37Q41.03 9.90 40.78 10.01L40.78 10.01L40.59 10.05Q40.61 11.63 40.73 12.18L40.73 12.18Q40.73 12.54 40.17 12.71Q39.62 12.88 39.12 12.88Q38.63 12.88 38.63 12.66L38.63 12.66Q38.63 12.63 38.71 12.10Q38.79 11.56 38.89 10.11ZM46.73 4.42L46.73 4.42L45.35 4.33Q44.04 4.33 43.99 4.68L43.99 4.68Q43.79 5.60 43.76 6.31L43.76 6.31Q43.76 6.45 43.86 6.45L43.86 6.45Q43.89 6.45 43.95 6.43L43.95 6.43Q44.45 6.16 45.11 6.16Q45.77 6.16 46.29 6.36Q46.82 6.55 47.11 6.89Q47.40 7.22 47.61 7.57Q47.81 7.91 47.89 8.33L47.89 8.33Q48.01 9.00 48.01 9.45L48.01 9.45Q48.01 10.93 47.20 11.92Q46.40 12.91 44.91 12.91L44.91 12.91L44.87 12.91Q43.57 12.91 42.76 12.40Q41.96 11.90 41.96 10.88L41.96 10.88Q41.96 10.39 42.10 10.02Q42.25 9.66 42.46 9.49L42.46 9.49Q42.90 9.14 43.25 9.11L43.25 9.11L43.39 9.10Q43.71 9.10 44.00 9.25Q44.30 9.39 44.30 9.69L44.30 9.69Q44.30 9.80 44.14 9.92Q43.99 10.04 43.88 10.27Q43.76 10.50 43.75 10.65L43.75 10.65L43.72 10.82Q43.72 11.20 43.85 11.46Q43.97 11.72 44.17 11.80L44.17 11.80Q44.49 11.96 44.72 11.96L44.72 11.96Q45.21 11.96 45.53 11.63Q45.86 11.30 45.99 10.79L45.99 10.79Q46.17 10.01 46.17 9.58L46.17 9.58Q46.17 7.18 44.83 7.18L44.83 7.18Q44.00 7.18 43.50 7.94L43.50 7.94Q43.43 8.18 42.90 8.18Q42.36 8.18 42.36 7.95L42.36 7.95L42.36 7.90Q42.67 6.09 42.87 3.02L42.87 3.02Q42.91 2.90 43.06 2.87L43.06 2.87Q43.64 2.84 44.35 2.84L44.35 2.84L45.96 2.87Q47.25 2.87 47.52 2.76L47.52 2.76Q47.57 2.73 47.64 2.73L47.64 2.73Q47.78 2.73 47.78 2.87L47.78 2.87Q47.78 3.26 47.45 3.84Q47.12 4.42 46.73 4.42Z"></path></g><defs data-v-423bf9ae=""><linearGradient data-v-423bf9ae="" gradientTransform="rotate(25)" id="2ce4f2e8-a213-4580-9056-890a60469fc9" x1="0%" y1="0%" x2="100%" y2="0%"><stop data-v-423bf9ae="" offset="0%" style="stop-color: rgb(10, 55, 50); stop-opacity: 1;"></stop><stop data-v-423bf9ae="" offset="100%" style="stop-color: rgb(85, 195, 136); stop-opacity: 1;"></stop></linearGradient></defs><g data-v-423bf9ae="" id="30d1f083-b56e-46b6-b992-b4ad834224bd" transform="matrix(3.860175764033615,0,0,3.860175764033615,0.23718777546216074,-16.421744111390325)" stroke="none" fill="url(#2ce4f2e8-a213-4580-9056-890a60469fc9)"><path d="M12.289 5.343v19.9L1 13.954V5.343h11.289m1-1H0v10.026l13.289 13.289V4.343zM31 5.343v8.612L19.711 25.243v-19.9H31m1-1H18.711v23.315L32 14.369V4.343z"></path></g><!----><g data-v-423bf9ae="" id="ee3d1e74-59a9-4c6e-851b-4912d11f8681" fill="#000000" transform="matrix(0.767219548338059,0,0,0.767219548338059,143.2570986496592,57.897819303294796)"><path d="M0.35 10.04L0.35 10.04L0.84 9.98L1.03 10.85Q1.13 11.33 1.20 11.41Q1.27 11.49 1.68 11.64L1.68 11.64Q2.52 11.95 3.42 11.95L3.42 11.95Q4.20 11.95 4.74 11.49L4.74 11.49Q5.28 11.04 5.28 10.26L5.28 10.26Q5.28 9.65 4.82 9.21L4.82 9.21Q4.34 8.76 3.49 8.30L3.49 8.30L2.91 7.98Q2.17 7.55 1.93 7.36L1.93 7.36Q1.57 7.08 1.26 6.59Q0.95 6.10 0.95 5.46L0.95 5.46Q0.95 4.39 1.79 3.68Q2.63 2.97 3.74 2.97L3.74 2.97Q4.02 2.97 4.37 3.04L4.37 3.04Q4.57 3.08 4.90 3.17L4.90 3.17L5.14 3.25Q5.24 3.25 5.28 3.16L5.28 3.16Q5.33 3.05 5.33 2.98L5.33 2.98L5.35 2.88L5.82 2.85L6.04 5.41L5.53 5.43L5.41 4.18Q4.66 3.62 3.50 3.62L3.50 3.62Q2.86 3.62 2.35 4.05L2.35 4.05Q1.87 4.47 1.87 5.12L1.87 5.12Q1.87 5.72 2.32 6.17L2.32 6.17Q2.75 6.60 3.62 7.08L3.62 7.08L4.40 7.50Q5.35 8.03 5.88 8.59Q6.41 9.15 6.41 9.92L6.41 9.92Q6.41 10.99 5.56 11.76L5.56 11.76Q4.69 12.54 3.23 12.54L3.23 12.54Q2.67 12.54 2.17 12.41Q1.67 12.29 1.61 12.29L1.61 12.29Q1.36 12.29 1.36 12.58L1.36 12.58L1.37 12.76L0.90 12.80Q0.83 12.41 0.35 10.04ZM14.98 7.83L14.98 7.83Q14.98 6.62 15.38 5.68L15.38 5.68Q15.80 4.72 16.49 4.12L16.49 4.12Q17.18 3.51 18.04 3.19L18.04 3.19Q18.88 2.88 19.83 2.88L19.83 2.88Q21.09 2.88 22.14 3.40L22.14 3.40Q23.22 3.93 23.93 5.07L23.93 5.07Q24.63 6.17 24.64 7.75L24.64 7.75Q24.64 8.70 24.33 9.54Q24.02 10.38 23.42 11.10Q22.81 11.81 21.88 12.22L21.88 12.22Q20.91 12.63 19.72 12.64L19.72 12.64Q18.59 12.64 17.65 12.23Q16.71 11.83 16.15 11.14L16.15 11.14Q15.58 10.45 15.29 9.60L15.29 9.60Q14.98 8.72 14.98 7.83ZM16.24 7.38L16.24 7.38Q16.24 8.52 16.67 9.60L16.67 9.60Q17.07 10.64 18.00 11.33L18.00 11.33Q18.91 12.03 20.10 12.04L20.10 12.04Q21.47 12.04 22.41 11.01L22.41 11.01Q23.36 9.97 23.36 8.10L23.36 8.10Q23.36 5.99 22.20 4.72L22.20 4.72Q21.05 3.46 19.54 3.45L19.54 3.45Q19.02 3.45 18.47 3.65Q17.93 3.85 17.42 4.25L17.42 4.25Q16.88 4.68 16.56 5.48L16.56 5.48Q16.24 6.27 16.24 7.38ZM32.76 3.64L32.75 3.08L39.94 3.08Q39.95 4.14 40.00 5.28L40.00 5.28L39.46 5.30Q39.44 4.66 39.39 4.25L39.39 4.25Q39.35 3.89 39.29 3.80L39.29 3.80Q39.24 3.71 39.12 3.69L39.12 3.69Q39.03 3.68 38.44 3.68L38.44 3.68L36.06 3.68Q35.51 3.68 35.37 3.77L35.37 3.77Q35.25 3.86 35.25 4.33L35.25 4.33L35.25 6.28Q35.25 6.69 35.30 6.76L35.30 6.76Q35.37 6.84 35.70 6.84L35.70 6.84L37.82 6.84Q38.19 6.84 38.27 6.74Q38.35 6.64 38.35 6.17L38.35 6.17L38.35 5.63L38.87 5.63L38.87 8.97L38.35 8.97L38.35 8.26Q38.35 7.68 38.27 7.57Q38.19 7.46 37.85 7.46L37.85 7.46L35.75 7.46Q35.42 7.46 35.33 7.54Q35.25 7.63 35.25 7.89L35.25 7.89L35.25 11.20Q35.25 11.60 35.31 11.73L35.31 11.73Q35.40 11.87 35.66 11.87L35.66 11.87L36.60 11.87L36.60 12.41L33.00 12.41L33.00 11.87L33.41 11.87Q33.92 11.87 34.02 11.79Q34.11 11.70 34.11 11.33L34.11 11.33L34.11 4.24Q34.11 3.79 33.94 3.71L33.94 3.71Q33.80 3.64 32.76 3.64L32.76 3.64ZM48.33 5.35L47.83 5.33Q47.95 4.17 48.04 3.08L48.04 3.08L56.12 3.08Q56.03 4.13 56.01 4.53L56.01 4.53Q55.97 5.26 55.95 5.32L55.95 5.32L55.45 5.30Q55.53 4.34 55.53 4.16L55.53 4.16Q55.53 3.88 55.38 3.79L55.38 3.79Q55.21 3.69 54.81 3.69L54.81 3.69L53.20 3.69Q52.70 3.69 52.58 3.79L52.58 3.79Q52.48 3.87 52.47 4.36L52.47 4.36L52.47 11.22Q52.47 11.66 52.62 11.76L52.62 11.76Q52.77 11.87 53.29 11.87L53.29 11.87L53.85 11.87L53.86 12.41L50.17 12.40L50.17 11.87L50.39 11.87Q51.06 11.87 51.20 11.79Q51.34 11.70 51.34 11.28L51.34 11.28L51.34 4.48Q51.34 3.92 51.25 3.80Q51.15 3.69 50.72 3.69L50.72 3.69L49.25 3.69Q49.07 3.69 49 3.71Q48.93 3.72 48.82 3.72L48.82 3.72Q48.79 3.72 48.68 3.79L48.68 3.79Q48.60 3.84 48.57 3.86Q48.54 3.88 48.50 3.99L48.50 3.99Q48.47 4.05 48.45 4.14L48.45 4.14Q48.42 4.21 48.40 4.36L48.40 4.36Q48.37 4.59 48.37 4.61L48.37 4.61Q48.37 4.80 48.36 4.95L48.36 4.95Q48.36 5.02 48.35 5.15Q48.34 5.29 48.33 5.35L48.33 5.35ZM64.24 3.64L64.00 3.64L64.00 3.08L67.10 3.08L67.09 3.64L66.78 3.64Q65.95 3.64 65.95 3.94L65.95 3.94Q65.95 4.03 65.99 4.09L65.99 4.09L68.41 10.76L70.72 4.85L70.62 4.57Q70.59 4.52 70.57 4.44Q70.55 4.36 70.53 4.31Q70.51 4.25 70.49 4.22L70.49 4.22Q70.46 4.16 70.37 3.96L70.37 3.96Q70.29 3.80 70.17 3.71L70.17 3.71Q70.09 3.64 69.92 3.64L69.92 3.64L69.23 3.64L69.23 3.08L72.56 3.08L72.56 3.64L71.83 3.64Q71.59 3.64 71.53 3.68L71.53 3.68Q71.46 3.72 71.46 3.86Q71.46 4.00 71.71 4.76L71.71 4.76L73.75 10.72L76.25 4.18Q76.30 4.01 76.30 3.94L76.30 3.94Q76.30 3.75 76.13 3.69L76.13 3.69Q75.97 3.64 75.62 3.64L75.62 3.64L75.25 3.64L75.25 3.08L77.65 3.08L77.66 3.64L77.49 3.64Q77.14 3.64 77.05 3.77L77.05 3.77Q76.92 3.96 76.68 4.60L76.68 4.60L73.59 12.64L73.35 12.64L70.97 5.64L68.25 12.63L68.03 12.63L65.06 4.52Q64.85 3.96 64.68 3.79L64.68 3.79Q64.52 3.63 64.24 3.64L64.24 3.64ZM85.41 12.41L85.39 11.87L85.57 11.87Q85.96 11.87 86.08 11.73L86.08 11.73Q86.21 11.57 86.54 10.83L86.54 10.83L87.45 8.82L88.03 7.53Q88.29 6.97 88.33 6.86L88.33 6.86Q88.40 6.70 88.45 6.60Q88.50 6.51 88.52 6.45L88.52 6.45L88.61 6.21L90.04 2.74L90.34 2.74Q91.19 4.98 93.38 10.25L93.38 10.25Q93.83 11.34 94.02 11.64L94.02 11.64Q94.16 11.87 94.60 11.87L94.60 11.87L94.81 11.87L94.79 12.41L91.60 12.41L91.62 11.87L92.03 11.87Q92.65 11.87 92.65 11.70L92.65 11.70Q92.65 11.63 92.51 11.27L92.51 11.27L91.47 8.72L88.22 8.72L87.12 11.18Q86.98 11.50 86.98 11.63L86.98 11.63Q86.98 11.79 87.08 11.83Q87.17 11.87 87.55 11.87L87.55 11.87L88.13 11.87L88.13 12.41L85.41 12.41ZM89.91 4.79L88.49 8.10L91.23 8.10L89.91 4.79ZM102.87 3.64L102.48 3.64L102.50 3.08L105.72 3.08Q106.85 3.08 107.45 3.21L107.45 3.21Q108.10 3.37 108.56 3.75L108.56 3.75Q109.57 4.57 109.57 5.71L109.57 5.71Q109.57 6.43 109.09 7.04L109.09 7.04Q108.60 7.66 107.57 7.92L107.57 7.92L110.26 11.49Q110.56 11.87 110.86 11.87L110.86 11.87L111.46 11.87L111.49 12.41L109.46 12.41L106.46 8.10L106.29 8.10Q106.25 8.10 106.20 8.11Q106.14 8.11 106.13 8.11L106.13 8.11Q105.25 8.11 104.85 8.03L104.85 8.03L104.85 11.46Q104.85 11.76 104.99 11.81L104.99 11.81Q105.12 11.87 105.82 11.87L105.82 11.87L106.53 11.87L106.50 12.41L102.78 12.41L102.78 11.87L103.10 11.87Q103.56 11.87 103.63 11.81L103.63 11.81Q103.71 11.74 103.71 11.46L103.71 11.46L103.71 4.14Q103.71 3.82 103.52 3.73L103.52 3.73Q103.30 3.64 102.87 3.64L102.87 3.64ZM104.85 4.28L104.85 7.57Q105.03 7.70 105.75 7.71L105.75 7.71Q107.02 7.71 107.60 7.27L107.60 7.27Q108.19 6.84 108.19 5.92L108.19 5.92Q108.19 4.92 107.41 4.27L107.41 4.27Q106.65 3.64 105.27 3.64L105.27 3.64Q105.02 3.64 104.94 3.75L104.94 3.75Q104.86 3.84 104.85 4.28L104.85 4.28ZM119.25 3.64L119.24 3.08L126.45 3.08Q126.46 4.14 126.52 5.28L126.52 5.28L125.97 5.30Q125.96 4.66 125.90 4.25L125.90 4.25Q125.86 3.89 125.81 3.80L125.81 3.80Q125.75 3.71 125.64 3.69L125.64 3.69Q125.54 3.68 124.95 3.68L124.95 3.68L122.58 3.68Q122.03 3.68 121.88 3.77L121.88 3.77Q121.76 3.86 121.76 4.33L121.76 4.33L121.76 6.28Q121.76 6.69 121.82 6.76L121.82 6.76Q121.88 6.84 122.23 6.84L122.23 6.84L124.34 6.84Q124.70 6.84 124.78 6.73L124.78 6.73Q124.87 6.63 124.87 6.14L124.87 6.14L124.87 5.61L125.38 5.63L125.38 8.97L124.87 8.97L124.87 8.24Q124.87 7.66 124.80 7.57L124.80 7.57Q124.71 7.46 124.37 7.46L124.37 7.46L122.27 7.46Q121.93 7.46 121.85 7.54Q121.76 7.63 121.76 7.89L121.76 7.89L121.76 11.20Q121.76 11.57 121.85 11.67Q121.93 11.77 122.21 11.77L122.21 11.77Q125.13 11.75 125.65 11.69L125.65 11.69Q126.17 11.63 126.25 11.38L126.25 11.38L126.26 11.36L126.27 11.35L126.49 10.17L126.97 10.25L126.62 12.41L119.52 12.41L119.52 11.87L119.89 11.87Q120.45 11.87 120.53 11.80L120.53 11.80Q120.63 11.72 120.63 11.33L120.63 11.33L120.63 4.24Q120.63 3.82 120.48 3.73L120.48 3.73Q120.31 3.64 119.65 3.64L119.65 3.64L119.25 3.64ZM144.46 3.64L144.42 3.08L148.20 3.08Q149.52 3.08 150.38 3.19L150.38 3.19Q151.20 3.29 151.89 3.69L151.89 3.69Q152.84 4.27 153.35 5.24L153.35 5.24Q153.84 6.21 153.84 7.39L153.84 7.39Q153.84 8.05 153.70 8.65L153.70 8.65Q153.54 9.29 153.15 9.98L153.15 9.98Q152.72 10.73 152.16 11.21L152.16 11.21Q151.53 11.76 150.56 12.08L150.56 12.08Q149.56 12.41 148.29 12.41L148.29 12.41L144.67 12.41L144.66 11.87L145.03 11.87Q145.55 11.87 145.65 11.79L145.65 11.79Q145.76 11.70 145.76 11.25L145.76 11.25L145.76 4.14Q145.76 3.77 145.67 3.71L145.67 3.71Q145.56 3.64 145.04 3.64L145.04 3.64L144.46 3.64ZM146.90 4.39L146.90 11.22Q146.90 11.67 147.06 11.77L147.06 11.77Q147.22 11.87 148.09 11.87L148.09 11.87Q149.14 11.87 149.93 11.61L149.93 11.61Q150.79 11.35 151.22 10.99L151.22 10.99Q151.72 10.58 152.02 10.05Q152.33 9.52 152.46 8.96L152.46 8.96Q152.58 8.41 152.58 7.82L152.58 7.82Q152.58 7.03 152.31 6.34L152.31 6.34Q152.04 5.65 151.52 5.05L151.52 5.05Q150.99 4.46 150.08 4.09L150.08 4.09Q149.15 3.73 147.99 3.73L147.99 3.73L147.47 3.73Q147.11 3.73 147.01 3.85L147.01 3.85Q146.90 3.99 146.90 4.39L146.90 4.39ZM161.83 3.64L161.81 3.08L169.03 3.08Q169.04 4.14 169.09 5.28L169.09 5.28L168.55 5.30Q168.53 4.66 168.48 4.25L168.48 4.25Q168.44 3.89 168.38 3.80L168.38 3.80Q168.33 3.71 168.21 3.69L168.21 3.69Q168.12 3.68 167.53 3.68L167.53 3.68L165.15 3.68Q164.60 3.68 164.46 3.77L164.46 3.77Q164.34 3.86 164.34 4.33L164.34 4.33L164.34 6.28Q164.34 6.69 164.39 6.76L164.39 6.76Q164.46 6.84 164.80 6.84L164.80 6.84L166.91 6.84Q167.28 6.84 167.36 6.73L167.36 6.73Q167.44 6.63 167.45 6.14L167.45 6.14L167.45 5.61L167.96 5.63L167.96 8.97L167.45 8.97L167.45 8.24Q167.45 7.66 167.37 7.57L167.37 7.57Q167.29 7.46 166.94 7.46L166.94 7.46L164.84 7.46Q164.51 7.46 164.42 7.54Q164.34 7.63 164.34 7.89L164.34 7.89L164.34 11.20Q164.34 11.57 164.42 11.67Q164.51 11.77 164.78 11.77L164.78 11.77Q167.70 11.75 168.23 11.69L168.23 11.69Q168.75 11.63 168.83 11.38L168.83 11.38L168.83 11.36L168.84 11.35L169.07 10.17L169.54 10.25L169.20 12.41L162.09 12.41L162.09 11.87L162.46 11.87Q163.02 11.87 163.11 11.80L163.11 11.80Q163.20 11.72 163.20 11.33L163.20 11.33L163.20 4.24Q163.20 3.82 163.05 3.73L163.05 3.73Q162.88 3.64 162.22 3.64L162.22 3.64L161.83 3.64ZM177.91 3.64L177.42 3.64L177.42 3.08L180.93 3.08L180.92 3.64L180.18 3.64Q179.85 3.64 179.85 3.82L179.85 3.82Q179.85 3.98 180.04 4.48L180.04 4.48L182.64 10.94L185.58 4.18Q185.65 3.97 185.66 3.92L185.66 3.92Q185.66 3.79 185.56 3.74Q185.46 3.68 185.32 3.65L185.32 3.65Q185.23 3.64 184.97 3.64L184.97 3.64L184.52 3.64L184.50 3.08L187.33 3.08L187.30 3.64L186.90 3.64Q186.58 3.64 186.42 3.83L186.42 3.83Q186.34 3.93 185.88 4.94L185.88 4.94Q185.66 5.46 185.60 5.57L185.60 5.57L182.46 12.63L182.23 12.63L178.98 4.73Q178.66 3.93 178.51 3.79L178.51 3.79Q178.36 3.63 177.91 3.64L177.91 3.64ZM195.08 3.64L195.07 3.08L202.28 3.08Q202.30 4.14 202.35 5.28L202.35 5.28L201.80 5.30Q201.79 4.66 201.74 4.25L201.74 4.25Q201.69 3.89 201.64 3.80L201.64 3.80Q201.58 3.71 201.47 3.69L201.47 3.69Q201.37 3.68 200.79 3.68L200.79 3.68L198.41 3.68Q197.86 3.68 197.72 3.77L197.72 3.77Q197.59 3.86 197.59 4.33L197.59 4.33L197.59 6.28Q197.59 6.69 197.65 6.76L197.65 6.76Q197.72 6.84 198.06 6.84L198.06 6.84L200.17 6.84Q200.53 6.84 200.61 6.73L200.61 6.73Q200.70 6.63 200.70 6.14L200.70 6.14L200.70 5.61L201.22 5.63L201.22 8.97L200.70 8.97L200.70 8.24Q200.70 7.66 200.63 7.57L200.63 7.57Q200.55 7.46 200.20 7.46L200.20 7.46L198.10 7.46Q197.76 7.46 197.68 7.54Q197.59 7.63 197.59 7.89L197.59 7.89L197.59 11.20Q197.59 11.57 197.68 11.67Q197.76 11.77 198.04 11.77L198.04 11.77Q200.96 11.75 201.48 11.69L201.48 11.69Q202.00 11.63 202.08 11.38L202.08 11.38L202.09 11.36L202.10 11.35L202.32 10.17L202.80 10.25L202.45 12.41L195.35 12.41L195.35 11.87L195.72 11.87Q196.28 11.87 196.36 11.80L196.36 11.80Q196.46 11.72 196.46 11.33L196.46 11.33L196.46 4.24Q196.46 3.82 196.31 3.73L196.31 3.73Q196.14 3.64 195.48 3.64L195.48 3.64L195.08 3.64ZM211.17 3.64L210.68 3.64L210.69 3.08L214.28 3.08L214.28 3.64L213.64 3.64Q213.27 3.64 213.15 3.72Q213.04 3.80 213.04 4.16L213.04 4.16L213.04 11.22Q213.04 11.57 213.13 11.67Q213.21 11.77 213.51 11.77L213.51 11.77Q216.38 11.74 217.03 11.63L217.03 11.63Q217.25 11.61 217.33 11.39Q217.41 11.17 217.61 10.05L217.61 10.05L218.10 10.08L217.64 12.41L210.88 12.41L210.86 11.87L211.25 11.87Q211.76 11.87 211.83 11.80L211.83 11.80Q211.91 11.72 211.91 11.33L211.91 11.33L211.91 4.09Q211.91 3.80 211.76 3.72L211.76 3.72Q211.61 3.64 211.17 3.64L211.17 3.64ZM226.21 7.83L226.21 7.83Q226.21 6.62 226.62 5.68L226.62 5.68Q227.04 4.72 227.73 4.12L227.73 4.12Q228.42 3.51 229.28 3.19L229.28 3.19Q230.12 2.88 231.07 2.88L231.07 2.88Q232.33 2.88 233.38 3.40L233.38 3.40Q234.46 3.93 235.17 5.07L235.17 5.07Q235.87 6.17 235.87 7.75L235.87 7.75Q235.87 8.70 235.57 9.54Q235.26 10.38 234.65 11.10Q234.05 11.81 233.11 12.22L233.11 12.22Q232.15 12.63 230.96 12.64L230.96 12.64Q229.82 12.64 228.89 12.23Q227.95 11.83 227.39 11.14L227.39 11.14Q226.82 10.45 226.52 9.60L226.52 9.60Q226.21 8.72 226.21 7.83ZM227.47 7.38L227.47 7.38Q227.47 8.52 227.90 9.60L227.90 9.60Q228.31 10.64 229.24 11.33L229.24 11.33Q230.15 12.03 231.33 12.04L231.33 12.04Q232.71 12.04 233.65 11.01L233.65 11.01Q234.60 9.97 234.60 8.10L234.60 8.10Q234.60 5.99 233.43 4.72L233.43 4.72Q232.29 3.46 230.77 3.45L230.77 3.45Q230.25 3.45 229.71 3.65Q229.17 3.85 228.66 4.25L228.66 4.25Q228.12 4.68 227.79 5.48L227.79 5.48Q227.47 6.27 227.47 7.38ZM247.71 12.41L243.99 12.41L243.99 11.87L244.43 11.87Q244.80 11.87 244.86 11.81L244.86 11.81Q244.92 11.74 244.93 11.46L244.93 11.46L244.93 4.14Q244.93 3.81 244.85 3.72Q244.76 3.64 244.40 3.64L244.40 3.64L244.03 3.64L244.04 3.08L246.93 3.08Q248.08 3.08 248.73 3.19L248.73 3.19Q249.33 3.28 249.80 3.68L249.80 3.68Q250.99 4.64 250.99 6.19L250.99 6.19Q250.99 7.23 250.22 7.98L250.22 7.98Q249.44 8.74 248.04 8.73L248.04 8.73Q247.86 8.73 247.45 8.70L247.45 8.70Q247.34 8.69 246.91 8.62L246.91 8.62Q246.58 8.55 246.48 8.54L246.48 8.54Q246.19 8.47 246.18 8.46L246.18 8.46L246.06 8.44L246.06 11.46Q246.06 11.74 246.19 11.81L246.19 11.81Q246.30 11.87 247.02 11.87L247.02 11.87L247.71 11.87L247.71 12.41ZM246.06 4.28L246.06 8.02Q246.41 8.29 247.38 8.29L247.38 8.29Q248.51 8.29 249.09 7.75L249.09 7.75Q249.68 7.21 249.68 6.16L249.68 6.16Q249.68 4.98 248.77 4.31L248.77 4.31Q247.87 3.64 246.48 3.64L246.48 3.64Q246.23 3.64 246.15 3.75L246.15 3.75Q246.07 3.84 246.06 4.28L246.06 4.28ZM258.98 3.64L258.97 3.08L266.18 3.08Q266.19 4.14 266.25 5.28L266.25 5.28L265.70 5.30Q265.69 4.66 265.63 4.25L265.63 4.25Q265.59 3.89 265.54 3.80L265.54 3.80Q265.48 3.71 265.36 3.69L265.36 3.69Q265.27 3.68 264.68 3.68L264.68 3.68L262.30 3.68Q261.75 3.68 261.61 3.77L261.61 3.77Q261.49 3.86 261.49 4.33L261.49 4.33L261.49 6.28Q261.49 6.69 261.54 6.76L261.54 6.76Q261.61 6.84 261.95 6.84L261.95 6.84L264.07 6.84Q264.43 6.84 264.51 6.73L264.51 6.73Q264.59 6.63 264.60 6.14L264.60 6.14L264.60 5.61L265.11 5.63L265.11 8.97L264.60 8.97L264.60 8.24Q264.60 7.66 264.52 7.57L264.52 7.57Q264.44 7.46 264.09 7.46L264.09 7.46L261.99 7.46Q261.66 7.46 261.57 7.54Q261.49 7.63 261.49 7.89L261.49 7.89L261.49 11.20Q261.49 11.57 261.57 11.67Q261.66 11.77 261.93 11.77L261.93 11.77Q264.85 11.75 265.38 11.69L265.38 11.69Q265.90 11.63 265.98 11.38L265.98 11.38L265.99 11.36L265.99 11.35L266.22 10.17L266.70 10.25L266.35 12.41L259.25 12.41L259.25 11.87L259.62 11.87Q260.18 11.87 260.26 11.80L260.26 11.80Q260.35 11.72 260.35 11.33L260.35 11.33L260.35 4.24Q260.35 3.82 260.20 3.73L260.20 3.73Q260.03 3.64 259.38 3.64L259.38 3.64L258.98 3.64ZM274.91 3.64L274.52 3.64L274.53 3.08L277.75 3.08Q278.89 3.08 279.49 3.21L279.49 3.21Q280.13 3.37 280.59 3.75L280.59 3.75Q281.60 4.57 281.60 5.71L281.60 5.71Q281.60 6.43 281.13 7.04L281.13 7.04Q280.64 7.66 279.60 7.92L279.60 7.92L282.29 11.49Q282.60 11.87 282.89 11.87L282.89 11.87L283.49 11.87L283.52 12.41L281.49 12.41L278.50 8.10L278.33 8.10Q278.28 8.10 278.23 8.11Q278.17 8.11 278.16 8.11L278.16 8.11Q277.28 8.11 276.88 8.03L276.88 8.03L276.88 11.46Q276.88 11.76 277.03 11.81L277.03 11.81Q277.15 11.87 277.85 11.87L277.85 11.87L278.56 11.87L278.54 12.41L274.81 12.41L274.81 11.87L275.13 11.87Q275.60 11.87 275.67 11.81L275.67 11.81Q275.75 11.74 275.75 11.46L275.75 11.46L275.75 4.14Q275.75 3.82 275.56 3.73L275.56 3.73Q275.33 3.64 274.91 3.64L274.91 3.64ZM276.88 4.28L276.88 7.57Q277.07 7.70 277.78 7.71L277.78 7.71Q279.05 7.71 279.63 7.27L279.63 7.27Q280.22 6.84 280.22 5.92L280.22 5.92Q280.22 4.92 279.45 4.27L279.45 4.27Q278.69 3.64 277.31 3.64L277.31 3.64Q277.05 3.64 276.97 3.75L276.97 3.75Q276.89 3.84 276.88 4.28L276.88 4.28Z"></path></g></svg>